# xmcd CD database file
#
# Track frame offsets:
#	150
#	15244
#	33395
#	53163
#	71145
#	88957
#	111567
#	131882
#	159116
#	173792
#	190141
#
# Disc length: 2812 seconds
#
# Revision: 0
# Processed by: cddbd v1.5.2PL0 Copyright (c) Steve Scherf et al.
# Submitted via: CDex 1.51
#
DISCID=930afa0b
DTITLE=Blue Soup - Occupied
DYEAR=2007
DGENRE=Jazz
TTITLE0=Senorita
TTITLE1=Son of a Beach
TTITLE2=Anyone Else But You
TTITLE3=Superhero Guy
TTITLE4=Mesmerism
TTITLE5=Morning Man
TTITLE6=Slowburn
TTITLE7=Secondhand
TTITLE8=Big Five
TTITLE9=Mysterious
TTITLE10=Home Sweet Home
EXTD=YEAR: 2007
EXTT0=
EXTT1=
EXTT2=
EXTT3=
EXTT4=
EXTT5=
EXTT6=
EXTT7=
EXTT8=
EXTT9=
EXTT10=
PLAYORDER=
